{"title":"Zero Dark Thirty 2013 NL","uid":8211033,"size":514025956,"categoryP":"video","categoryS":"handheld","magnet":"?xt=urn:btih:1ce1dc360b5b2b904ff44f20282b55a160b251ae&amp;dn=Zero+Dark+Thirty+2013+NL&amp;tr=udp%3A%2F%2Ftracker.openbittorrent.com%3A80&amp;tr=udp%3A%2F%2Fopen.demonii.com%3A1337&amp;tr=udp%3A%2F%2Ftracker.coppersurfer.tk%3A6969&amp;tr=udp%3A%2F%2Fexodus.desync.com%3A6969","seeders":3,"leechers":0,"uploader":"facemovies","files":-1,"time":1362240735,"description":"Format                           : MPEG-4\nFormat profile                   : Base Media / Version 2\nCodec ID                         : mp42\nFile size                        : 490 MiB\nDuration                         : 2h 36mn\nOverall bit rate                 : 437 Kbps\nEncoded date                     : UTC 2013-02-28 05:00:23\nTagged date                      : UTC 2013-02-28 05:00:23\n\nVideo\nID                               : 1\nFormat                           : AVC\nFormat/Info                      : Advanced Video Codec\nFormat profile                   : &lt;a class=&quot;__cf_email__&quot; href=&quot;/cdn-cgi/l/email-protection&quot; data-cfemail=&quot;a3eec2cacde3ef908d93&quot;&gt;[email&amp;#160;protected]&lt;/a&gt;&lt;script cf-hash='f9e31' type=&quot;text/javascript&quot;&gt;\n/* &lt;![CDATA[ */!function(){try{var t=&quot;currentScript&quot;in document?document.currentScript:function(){for(var t=document.getElementsByTagName(&quot;script&quot;),e=t.length;e--;)if(t[e].getAttribute(&quot;cf-hash&quot;))return t[e]}();if(t&amp;&amp;t.previousSibling){var e,r,n,i,c=t.previousSibling,a=c.getAttribute(&quot;data-cfemail&quot;);if(a){for(e=&quot;&quot;,r=parseInt(a.substr(0,2),16),n=2;a.length-n;n+=2)i=parseInt(a.substr(n,2),16)^r,e+=String.fromCharCode(i);e=document.createTextNode(e),c.parentNode.replaceChild(e,c)}}}catch(u){}}();/* ]]&gt; */&lt;/script&gt;\nFormat settings, CABAC           : Yes\nFormat settings, ReFrames        : 3 frames\nCodec ID                         : avc1\nCodec ID/Info                    : Advanced Video Coding\nDuration                         : 2h 36mn\nBit rate mode                    : Variable\nBit rate                         : 308 Kbps\nWidth                            : 688 pixels\nHeight                           : 288 pixels\nDisplay aspect ratio             : 2.35:1\nFrame rate mode                  : Variable\nFrame rate                       : 30.000 fps\nMinimum frame rate               : 30.000 fps\nMaximum frame rate               : 30.030 fps\nStandard                         : NTSC\nResolution                       : 8 bits\nColorimetry                      : 4:2:0\nScan type                        : Progressive\nBits/(Pixel*Frame)               : 0.052\nStream size                      : 346 MiB (71%)\nLanguage                         : English\nEncoded date                     : UTC 2013-02-28 05:00:23\nTagged date                      : UTC 2013-02-28 05:00:23\n\nAudio\nID                               : 2\nFormat                           : AAC\nFormat/Info                      : Advanced Audio Codec\nFormat version                   : Version 4\nFormat profile                   : LC\nFormat settings, SBR             : No\nCodec ID                         : 40\nDuration                         : 2h 36mn\nBit rate mode                    : Variable\nBit rate                         : 126 Kbps\nMaximum bit rate                 : 526 Kbps\nChannel(s)                       : 2 channels\nChannel positions                : Front: L R\nSampling rate                    : 44.1 KHz\nStream size                      : 141 MiB (29%)\nLanguage                         : English","torrent":{"xt":"urn:btih:1ce1dc360b5b2b904ff44f20282b55a160b251ae","amp;dn":"Zero+Dark+Thirty+2013+NL","amp;tr":["udp%3A%2F%2Ftracker.openbittorrent.com%3A80","udp%3A%2F%2Fopen.demonii.com%3A1337","udp%3A%2F%2Ftracker.coppersurfer.tk%3A6969","udp%3A%2F%2Fexodus.desync.com%3A6969"],"infoHash":"1ce1dc360b5b2b904ff44f20282b55a160b251ae","infoHashBuffer":{"type":"Buffer","data":[28,225,220,54,11,91,43,144,79,244,79,32,40,43,85,161,96,178,81,174]},"announce":[],"urlList":[]}}